<svg version="1.1" id="Layer_1" xmlns="http://www.w3.org/2000/svg" xmlns:xlink="http://www.w3.org/1999/xlink" x="0px" y="0px"
	 width="100%" viewBox="0 0 742 742" enable-background="new 0 0 742 742" xml:space="preserve">
<path fill="#1E4D70" opacity="1.000000" stroke="none"
	d="
M211.000000,743.000000
	C155.645767,743.000000 100.291542,743.000000 44.549442,742.586670
	C40.908974,741.450806 37.673203,740.639038 34.400730,740.021973
	C23.315050,737.932068 13.243767,734.513428 7.904326,723.153992
	C6.313135,719.768799 3.339963,717.033203 1.000002,714.000000
	C1.000000,633.979126 1.000000,553.958191 1.429546,473.535339
	C2.239268,470.955353 2.951356,468.777527 2.952199,466.599396
	C3.004928,330.357544 2.985685,194.115631 3.042036,57.873756
	C3.044768,51.269005 3.007406,44.550434 4.129002,38.082607
	C6.824409,22.539194 12.913345,9.056641 29.047792,2.823560
	C29.528309,2.637926 29.689779,1.626440 30.000000,1.000000
	C92.354225,1.000000 154.708450,1.000000 217.402039,1.362949
	C218.554504,2.182867 219.341675,2.695544 220.184784,3.088043
	C227.238907,6.371995 232.347427,11.506129 234.892593,18.919167
	C238.337662,28.953217 239.022964,39.340553 236.802277,49.602379
	C234.751114,59.080734 230.971573,68.167145 220.910065,71.854507
	C215.770096,73.738205 210.042053,74.834518 204.571198,74.867645
	C164.106873,75.112694 123.640358,75.000366 83.174538,75.000389
	C81.246307,75.000389 79.318085,75.000389 76.877197,75.000389
	C76.877197,90.342125 76.877197,104.966530 76.905647,120.001045
	C76.920044,274.608521 76.902870,428.805878 76.894806,583.003235
	C76.893364,610.645203 76.929497,638.287109 77.232925,666.248535
	C78.663284,666.711487 79.808922,666.979736 80.954704,666.980408
	C121.256493,667.002136 161.558304,667.006653 201.860062,666.966858
	C203.305649,666.965454 204.750763,666.492676 206.601349,666.215454
	C208.964203,666.496216 210.921875,667.068054 212.879364,667.067444
	C320.828125,667.035645 428.776855,666.955872 537.210571,666.920044
	C578.929260,666.972351 620.162903,666.997314 661.396484,666.953796
	C662.942810,666.952148 664.488403,666.284790 666.033081,665.979736
	C666.031738,666.031738 665.927673,666.034363 666.247314,665.754028
	C666.710693,664.328186 666.979614,663.182739 666.980286,662.037231
	C667.002136,622.071350 667.006653,582.105469 666.966858,542.139648
	C666.965454,540.694092 666.492615,539.249146 666.215515,537.398682
	C666.497070,534.370789 667.059387,531.748901 667.067688,529.125366
	C667.138245,506.812805 667.110901,484.499908 667.107605,462.187134
	C667.091064,348.791870 667.072937,235.396591 667.034424,121.533005
	C667.013550,105.831566 667.013550,90.598442 667.013550,75.000366
	C664.284363,75.000366 662.312561,75.000366 660.340759,75.000366
	C622.739258,75.000359 585.137634,75.038612 547.536316,74.956520
	C542.269348,74.945023 536.983337,74.535309 531.741577,73.976799
	C518.744202,72.591896 511.083069,65.474625 507.933075,52.642509
	C505.775055,43.851311 505.356628,35.042336 507.126251,26.217676
	C509.115082,16.299862 513.464844,7.882858 523.213135,3.288073
	C523.994629,2.919722 524.412903,1.780814 525.000000,0.999996
	C587.354248,1.000000 649.708435,1.000000 712.408936,1.370598
	C715.651855,3.148179 718.773132,4.225123 721.407837,6.017299
	C735.383606,15.523819 740.777039,29.955856 740.813110,45.720272
	C741.134277,185.969223 740.999756,326.219208 741.002747,466.468903
	C741.002747,468.133881 740.875000,469.827911 741.153687,471.448761
	C741.257629,472.053741 742.355408,472.487946 743.000000,473.000000
	C743.000000,548.354248 743.000000,623.708435 742.587158,699.450073
	C741.448120,703.103821 740.617737,706.351013 740.014587,709.639832
	C737.820374,721.604553 733.445129,732.095764 721.093567,736.903259
	C717.473511,738.312317 713.556213,738.946228 709.798340,740.016602
	C706.515320,740.951782 703.264832,742.001160 700.000000,743.000000
	C624.979126,743.000000 549.958191,743.000000 474.535309,742.570435
	C472.124054,741.760620 470.115051,741.049011 468.105560,741.047668
	C384.411530,740.992004 300.717468,740.999756 217.023392,741.002869
	C215.526596,741.002930 213.992096,740.859375 212.550659,741.153198
	C211.933914,741.278931 211.511002,742.355469 211.000000,743.000000
z"/>
<path fill="#E7D6AF" opacity="1.000000" stroke="none"
	d="
M76.905647,120.001045
	C81.245384,119.060646 85.625214,117.995621 89.979782,118.090492
	C111.498360,118.559349 133.019577,119.125381 154.520996,120.081581
	C167.307190,120.650200 180.049637,122.140610 192.827988,122.964851
	C205.837967,123.804047 218.891312,125.161201 231.883133,124.792664
	C248.432236,124.323219 264.938843,122.350739 281.463318,121.020676
	C285.553467,120.691460 289.636261,120.161499 293.732117,120.033112
	C307.159271,119.612244 320.615723,118.666641 334.014587,119.165993
	C351.557098,119.819763 369.061188,121.588272 386.570770,123.012856
	C397.180969,123.876114 407.773041,124.968010 418.368011,126.010727
	C424.552338,126.619370 430.716370,127.450981 436.907013,127.975914
	C449.894806,129.077225 462.015808,125.679337 474.004333,121.047150
	C484.533600,116.978813 495.570679,115.097908 506.920410,114.965202
	C524.011658,114.765373 541.110046,113.819603 558.186951,114.149117
	C574.277771,114.459618 590.348328,115.955910 606.420654,117.037567
	C614.276611,117.566277 622.109375,118.437515 629.964905,118.976395
	C641.125549,119.742012 652.298706,120.325302 663.462341,121.050835
	C664.386902,121.110924 665.279663,121.661079 666.621216,121.992432
	C667.072937,235.396591 667.091064,348.791870 667.107605,462.187134
	C667.110901,484.499908 667.138245,506.812805 667.067688,529.125366
	C667.059387,531.748901 666.497070,534.370789 666.115417,537.881958
	C666.002075,581.191772 665.964905,623.613037 665.927673,666.034363
	C665.927673,666.034363 666.031738,666.031738 665.561707,666.010010
	C624.190918,665.992188 583.290100,665.984375 542.389404,666.037354
	C540.501099,666.039795 538.613525,666.587341 536.725586,666.880981
	C428.776855,666.955872 320.828125,667.035645 212.879364,667.067444
	C210.921875,667.068054 208.964203,666.496216 206.118103,666.115356
	C162.469162,666.002563 119.708717,665.965820 76.948280,665.929077
	C76.929497,638.287109 76.893364,610.645203 76.894806,583.003235
	C76.902870,428.805878 76.920044,274.608521 76.905647,120.001045
M501.526215,223.995316
	C500.552246,224.205231 499.581665,224.432800 498.603790,224.622559
	C441.880524,235.628906 390.331085,286.521240 385.756622,349.815521
	C381.781952,404.810791 396.655914,452.372101 438.736542,489.855072
	C462.569946,511.084503 490.404846,522.347900 522.214111,522.890869
	C552.363342,523.405518 582.528320,523.040649 612.686279,522.987610
	C632.267883,522.953186 642.161682,514.052002 644.416199,494.648529
	C646.345947,478.039398 640.454468,465.043579 626.386841,457.828217
	C619.986145,454.545197 612.670593,451.806030 605.596497,451.313751
	C586.193420,449.963593 566.685547,450.203125 547.244812,449.276855
	C536.474304,448.763672 525.617920,447.907837 515.039856,445.926788
	C489.118195,441.072205 471.953552,425.893005 465.257233,400.121918
	C460.450134,381.621490 459.799194,362.719666 465.537842,344.380798
	C468.205597,335.855438 472.611115,327.376099 478.094269,320.326874
	C492.122589,302.291901 512.445435,294.747589 534.144897,292.239471
	C552.404480,290.128937 570.972473,290.488007 589.410950,290.189301
	C603.077332,289.967834 616.722717,290.087708 629.695618,284.934052
	C637.248169,281.933655 643.591736,277.214813 646.123413,269.263672
	C650.004761,257.073883 648.523682,245.104904 641.718628,234.276337
	C635.190369,223.888046 624.579773,221.087219 613.114319,221.037262
	C585.622742,220.917480 558.127014,220.758728 530.639893,221.130875
	C521.208069,221.258575 511.796967,222.916977 501.526215,223.995316
M127.814240,221.136032
	C115.424400,222.093185 105.173851,226.703705 99.691406,238.578690
	C96.124550,246.304520 95.282608,254.660049 96.258873,263.042877
	C97.313080,272.094971 102.213684,278.665436 110.312721,282.971710
	C120.154373,288.204590 130.810043,289.778290 141.693405,289.942444
	C157.163437,290.175873 172.647079,289.699463 188.111237,290.080658
	C208.284500,290.577942 227.852112,294.199951 245.715408,304.175903
	C259.180969,311.695801 269.451782,322.321106 275.074829,336.913727
	C283.481598,358.730499 283.198059,380.980103 276.755371,403.044067
	C270.880035,423.165039 257.873535,436.951416 237.451416,443.403137
	C218.748749,449.311615 199.549042,450.441528 180.217758,449.566254
	C164.351196,448.847839 148.571304,449.563751 133.032288,452.253906
	C113.015999,455.719269 101.484016,466.853210 99.875877,484.218903
	C99.206001,491.452606 100.292976,499.259613 102.417999,506.247284
	C105.780556,517.304382 116.331116,522.952148 130.861038,522.982788
	C160.684006,523.045532 190.507446,523.065491 220.330048,522.943237
	C225.803040,522.920776 231.324554,522.481140 236.735916,521.657471
	C274.481628,515.912292 303.575378,495.986969 326.370972,466.152252
	C348.318817,437.427124 357.609985,404.485443 358.007050,368.701141
	C358.333740,339.260529 352.503082,311.320618 335.602539,286.802185
	C306.519257,244.609726 265.994781,222.435715 214.715134,221.142975
	C186.078262,220.421036 157.406967,221.064651 127.814240,221.136032
z"/>
<path fill="#3A362C" opacity="1.000000" stroke="none"
	d="
M77.232925,666.248535
	C119.708717,665.965820 162.469162,666.002563 205.712860,666.139404
	C204.750763,666.492676 203.305649,666.965454 201.860062,666.966858
	C161.558304,667.006653 121.256493,667.002136 80.954704,666.980408
	C79.808922,666.979736 78.663284,666.711487 77.232925,666.248535
z"/>
<path fill="#3A362C" opacity="1.000000" stroke="none"
	d="
M537.210571,666.920044
	C538.613525,666.587341 540.501099,666.039795 542.389404,666.037354
	C583.290100,665.984375 624.190918,665.992188 665.562988,665.958008
	C664.488403,666.284790 662.942810,666.952148 661.396484,666.953796
	C620.162903,666.997314 578.929260,666.972351 537.210571,666.920044
z"/>
<path fill="#3A362C" opacity="1.000000" stroke="none"
	d="
M666.247314,665.754028
	C665.964905,623.613037 666.002075,581.191772 666.139404,538.287170
	C666.492615,539.249146 666.965454,540.694092 666.966858,542.139648
	C667.006653,582.105469 667.002136,622.071350 666.980286,662.037231
	C666.979614,663.182739 666.710693,664.328186 666.247314,665.754028
z"/>
<path fill="#ED7F01" opacity="1.000000" stroke="none"
	d="
M501.951294,223.935699
	C511.796967,222.916977 521.208069,221.258575 530.639893,221.130875
	C558.127014,220.758728 585.622742,220.917480 613.114319,221.037262
	C624.579773,221.087219 635.190369,223.888046 641.718628,234.276337
	C648.523682,245.104904 650.004761,257.073883 646.123413,269.263672
	C643.591736,277.214813 637.248169,281.933655 629.695618,284.934052
	C616.722717,290.087708 603.077332,289.967834 589.410950,290.189301
	C570.972473,290.488007 552.404480,290.128937 534.144897,292.239471
	C512.445435,294.747589 492.122589,302.291901 478.094269,320.326874
	C472.611115,327.376099 468.205597,335.855438 465.537842,344.380798
	C459.799194,362.719666 460.450134,381.621490 465.257233,400.121918
	C471.953552,425.893005 489.118195,441.072205 515.039856,445.926788
	C525.617920,447.907837 536.474304,448.763672 547.244812,449.276855
	C566.685547,450.203125 586.193420,449.963593 605.596497,451.313751
	C612.670593,451.806030 619.986145,454.545197 626.386841,457.828217
	C640.454468,465.043579 646.345947,478.039398 644.416199,494.648529
	C642.161682,514.052002 632.267883,522.953186 612.686279,522.987610
	C582.528320,523.040649 552.363342,523.405518 522.214111,522.890869
	C490.404846,522.347900 462.569946,511.084503 438.736542,489.855072
	C396.655914,452.372101 381.781952,404.810791 385.756622,349.815521
	C390.331085,286.521240 441.880524,235.628906 498.603790,224.622559
	C499.581665,224.432800 500.552246,224.205231 501.951294,223.935699
z"/>
<path fill="#ED7F01" opacity="1.000000" stroke="none"
	d="
M128.282715,221.114471
	C157.406967,221.064651 186.078262,220.421036 214.715134,221.142975
	C265.994781,222.435715 306.519257,244.609726 335.602539,286.802185
	C352.503082,311.320618 358.333740,339.260529 358.007050,368.701141
	C357.609985,404.485443 348.318817,437.427124 326.370972,466.152252
	C303.575378,495.986969 274.481628,515.912292 236.735916,521.657471
	C231.324554,522.481140 225.803040,522.920776 220.330048,522.943237
	C190.507446,523.065491 160.684006,523.045532 130.861038,522.982788
	C116.331116,522.952148 105.780556,517.304382 102.417999,506.247284
	C100.292976,499.259613 99.206001,491.452606 99.875877,484.218903
	C101.484016,466.853210 113.015999,455.719269 133.032288,452.253906
	C148.571304,449.563751 164.351196,448.847839 180.217758,449.566254
	C199.549042,450.441528 218.748749,449.311615 237.451416,443.403137
	C257.873535,436.951416 270.880035,423.165039 276.755371,403.044067
	C283.198059,380.980103 283.481598,358.730499 275.074829,336.913727
	C269.451782,322.321106 259.180969,311.695801 245.715408,304.175903
	C227.852112,294.199951 208.284500,290.577942 188.111237,290.080658
	C172.647079,289.699463 157.163437,290.175873 141.693405,289.942444
	C130.810043,289.778290 120.154373,288.204590 110.312721,282.971710
	C102.213684,278.665436 97.313080,272.094971 96.258873,263.042877
	C95.282608,254.660049 96.124550,246.304520 99.691406,238.578690
	C105.173851,226.703705 115.424400,222.093185 128.282715,221.114471
z"/>
</svg>