<svg version="1.1" id="Layer_1" xmlns="http://www.w3.org/2000/svg" xmlns:xlink="http://www.w3.org/1999/xlink" x="0px" y="0px"
	 width="100%" viewBox="0 0 742 742" enable-background="new 0 0 742 742" xml:space="preserve">
<path fill="#013B5C" opacity="1.000000" stroke="none" 
	d="
M743.000000,473.000000 
	C743.000000,548.354248 743.000000,623.708435 742.602661,699.563538 
	C741.472107,703.180725 740.562073,706.267517 740.034973,709.418396 
	C736.896423,728.179382 727.920837,737.687134 708.631714,740.152527 
	C705.681396,740.529602 702.873657,742.022949 700.000000,743.000000 
	C624.979126,743.000000 549.958191,743.000000 474.424713,742.588623 
	C471.901337,741.784851 469.890900,741.051147 467.879791,741.049438 
	C398.660126,740.990112 329.440430,741.000000 260.220734,741.000000 
	C245.411713,741.000000 230.602066,740.939087 215.794525,741.087769 
	C214.190109,741.103882 212.597870,742.333313 211.000000,743.000000 
	C155.645767,743.000000 100.291542,743.000000 44.436081,742.602173 
	C40.492855,741.466125 37.047199,740.744507 33.609562,739.986572 
	C23.062815,737.661438 13.283862,734.351013 8.066591,723.503479 
	C6.386693,720.010681 3.392781,717.149902 1.000003,714.000000 
	C1.000000,633.979126 1.000000,553.958191 1.411370,473.424744 
	C2.215225,470.732117 2.950375,468.552246 2.951240,466.372070 
	C3.005646,329.261597 2.988438,192.151062 3.042190,55.040569 
	C3.044394,49.420036 3.142887,43.710308 4.092267,38.196369 
	C6.767270,22.660112 12.931866,9.334908 28.753353,2.834225 
	C29.323812,2.599838 29.591309,1.628097 30.000000,1.000000 
	C92.354225,1.000000 154.708450,1.000000 217.529358,1.359928 
	C218.636658,2.172963 219.222763,2.749491 219.926254,3.060207 
	C227.469543,6.391831 232.496140,11.870583 235.116653,19.781269 
	C238.437225,29.805244 238.913925,40.009964 236.662125,50.145515 
	C234.813141,58.468102 231.726486,66.936913 223.258163,70.591629 
	C217.347931,73.142334 210.546875,74.753838 204.125717,74.812477 
	C163.655624,75.182129 123.180161,75.076355 82.707504,74.895767 
	C78.045395,74.874969 76.806442,76.256996 76.898865,80.789276 
	C77.160278,93.607780 76.945259,106.436012 76.878418,119.704636 
	C76.783707,121.645287 76.680206,123.141693 76.680145,124.638107 
	C76.672905,303.297485 76.673332,481.956879 76.673347,660.616272 
	C76.673347,662.245483 76.673340,663.874695 76.673340,665.741333 
	C78.193436,665.867493 79.318687,666.033203 80.445419,666.043884 
	C126.402176,666.480164 172.358337,667.127869 218.316101,667.273132 
	C284.646088,667.482788 350.977692,667.489136 417.307709,667.285400 
	C498.922607,667.034668 580.536560,666.480347 662.150879,666.040466 
	C663.408569,666.033691 664.665161,665.810059 665.422302,665.736328 
	C666.061279,619.330566 667.154663,573.383911 667.239563,527.435303 
	C667.485657,394.274536 667.327881,261.112976 667.315186,127.951744 
	C667.315002,125.960396 667.143066,123.969070 667.035095,121.510727 
	C667.012634,107.715523 666.800415,94.382553 667.110046,81.061699 
	C667.220581,76.305145 665.950012,74.864929 661.061707,74.890182 
	C622.744019,75.088150 584.424927,75.033707 546.106384,74.956970 
	C541.318176,74.947380 536.507080,74.556023 531.748230,73.990791 
	C518.674072,72.437935 511.078583,65.512733 507.956055,52.819447 
	C505.786072,43.998150 505.374146,35.134140 507.153839,26.239742 
	C509.122375,16.401718 513.353516,8.052731 522.975098,3.435873 
	C523.840454,3.020640 524.333862,1.830342 525.000000,0.999997 
	C587.354248,1.000000 649.708435,1.000000 712.533813,1.365600 
	C715.768982,3.100906 718.742371,4.164997 721.262451,5.890918 
	C735.456177,15.611708 740.806091,30.240120 740.838379,46.342335 
	C741.118713,186.127579 740.999939,325.913635 741.001343,465.699432 
	C741.001343,467.365387 740.806580,469.073273 741.119507,470.680420 
	C741.287415,471.542969 742.344299,472.232422 743.000000,473.000000 
z"/>
<path fill="#000000" opacity="1.000000" stroke="none" 
	d="
M524.531372,0.999997 
	C524.333862,1.830342 523.840454,3.020640 522.975098,3.435873 
	C513.353516,8.052731 509.122375,16.401718 507.153839,26.239742 
	C505.374146,35.134140 505.786072,43.998150 507.956055,52.819447 
	C511.078583,65.512733 518.674072,72.437935 531.748230,73.990791 
	C536.507080,74.556023 541.318176,74.947380 546.106384,74.956970 
	C584.424927,75.033707 622.744019,75.088150 661.061707,74.890182 
	C665.950012,74.864929 667.220581,76.305145 667.110046,81.061699 
	C666.800415,94.382553 667.012634,107.715523 666.601624,121.512352 
	C659.200256,121.320633 652.222534,120.581665 645.230835,120.016891 
	C632.136963,118.959198 619.046021,117.812286 605.933716,117.047867 
	C585.872009,115.878326 565.802551,114.633057 545.718506,114.128960 
	C532.149292,113.788383 518.538086,114.434830 504.968353,115.101524 
	C498.502838,115.419182 491.940308,116.236053 485.690430,117.860497 
	C477.306030,120.039696 469.320099,123.793259 460.910034,125.821693 
	C451.027008,128.205383 440.954956,128.718262 430.670166,127.150063 
	C417.915161,125.205215 405.004608,124.245651 392.145355,123.028313 
	C376.975159,121.592209 361.797791,119.384583 346.605896,119.228699 
	C324.935669,119.006355 303.234711,120.045097 281.574738,121.111069 
	C264.032196,121.974403 246.542603,123.878731 229.004639,124.889565 
	C222.781876,125.248230 216.483276,124.373543 210.223618,123.991165 
	C199.878403,123.359215 189.531494,122.741508 179.194702,121.988655 
	C161.669235,120.712212 144.169418,118.681152 126.624596,118.190056 
	C110.078659,117.726913 93.488586,118.840454 76.917931,119.260406 
	C76.945259,106.436012 77.160278,93.607780 76.898865,80.789276 
	C76.806442,76.256996 78.045395,74.874969 82.707504,74.895767 
	C123.180161,75.076355 163.655624,75.182129 204.125717,74.812477 
	C210.546875,74.753838 217.347931,73.142334 223.258163,70.591629 
	C231.726486,66.936913 234.813141,58.468102 236.662125,50.145515 
	C238.913925,40.009964 238.437225,29.805244 235.116653,19.781269 
	C232.496140,11.870583 227.469543,6.391831 219.926254,3.060207 
	C219.222763,2.749491 218.636658,2.172963 217.998016,1.359928 
	C320.020905,1.000000 422.041779,1.000000 524.531372,0.999997 
z"/>
<path fill="#000000" opacity="1.000000" stroke="none" 
	d="
M743.000000,472.531311 
	C742.344299,472.232422 741.287415,471.542969 741.119507,470.680420 
	C740.806580,469.073273 741.001343,467.365387 741.001343,465.699432 
	C740.999939,325.913635 741.118713,186.127579 740.838379,46.342335 
	C740.806091,30.240120 735.456177,15.611708 721.262451,5.890918 
	C718.742371,4.164997 715.768982,3.100906 713.002441,1.365600 
	C722.991272,1.000000 732.982544,1.000000 743.000000,1.000000 
	C743.000000,158.020889 743.000000,315.041779 743.000000,472.531311 
z"/>
<path fill="#000000" opacity="1.000000" stroke="none" 
	d="
M29.531342,1.000000 
	C29.591309,1.628097 29.323812,2.599838 28.753353,2.834225 
	C12.931866,9.334908 6.767270,22.660112 4.092267,38.196369 
	C3.142887,43.710308 3.044394,49.420036 3.042190,55.040569 
	C2.988438,192.151062 3.005646,329.261597 2.951240,466.372070 
	C2.950375,468.552246 2.215225,470.732117 1.411370,472.956055 
	C1.000000,315.666656 1.000000,158.333328 1.000000,1.000000 
	C10.412369,1.000000 19.737526,1.000000 29.531342,1.000000 
z"/>
<path fill="#000000" opacity="1.000000" stroke="none" 
	d="
M211.468658,743.000000 
	C212.597870,742.333313 214.190109,741.103882 215.794525,741.087769 
	C230.602066,740.939087 245.411713,741.000000 260.220734,741.000000 
	C329.440430,741.000000 398.660126,740.990112 467.879791,741.049438 
	C469.890900,741.051147 471.901337,741.784851 473.956055,742.588623 
	C386.645782,743.000000 299.291534,743.000000 211.468658,743.000000 
z"/>
<path fill="#000000" opacity="1.000000" stroke="none" 
	d="
M700.468628,743.000000 
	C702.873657,742.022949 705.681396,740.529602 708.631714,740.152527 
	C727.920837,737.687134 736.896423,728.179382 740.034973,709.418396 
	C740.562073,706.267517 741.472107,703.180725 742.602661,700.032227 
	C743.000000,714.260010 743.000000,728.520081 743.000000,743.000000 
	C728.979858,743.000000 714.958618,743.000000 700.468628,743.000000 
z"/>
<path fill="#000000" opacity="1.000000" stroke="none" 
	d="
M1.000003,714.468628 
	C3.392781,717.149902 6.386693,720.010681 8.066591,723.503479 
	C13.283862,734.351013 23.062815,737.661438 33.609562,739.986572 
	C37.047199,740.744507 40.492855,741.466125 43.967422,742.602173 
	C29.754333,743.000000 15.508668,743.000000 1.000000,743.000000 
	C1.000000,733.647400 1.000000,724.292358 1.000003,714.468628 
z"/>
<path fill="#E7D6AF" opacity="1.000000" stroke="none" 
	d="
M76.878418,119.704643 
	C93.488586,118.840454 110.078659,117.726913 126.624596,118.190056 
	C144.169418,118.681152 161.669235,120.712212 179.194702,121.988655 
	C189.531494,122.741508 199.878403,123.359215 210.223618,123.991165 
	C216.483276,124.373543 222.781876,125.248230 229.004639,124.889565 
	C246.542603,123.878731 264.032196,121.974403 281.574738,121.111069 
	C303.234711,120.045097 324.935669,119.006355 346.605896,119.228699 
	C361.797791,119.384583 376.975159,121.592209 392.145355,123.028313 
	C405.004608,124.245651 417.915161,125.205215 430.670166,127.150063 
	C440.954956,128.718262 451.027008,128.205383 460.910034,125.821693 
	C469.320099,123.793259 477.306030,120.039696 485.690430,117.860497 
	C491.940308,116.236053 498.502838,115.419182 504.968353,115.101524 
	C518.538086,114.434830 532.149292,113.788383 545.718506,114.128960 
	C565.802551,114.633057 585.872009,115.878326 605.933716,117.047867 
	C619.046021,117.812286 632.136963,118.959198 645.230835,120.016891 
	C652.222534,120.581665 659.200256,121.320633 666.617737,121.979355 
	C667.143066,123.969070 667.315002,125.960396 667.315186,127.951744 
	C667.327881,261.112976 667.485657,394.274536 667.239563,527.435303 
	C667.154663,573.383911 666.061279,619.330566 665.422302,665.736328 
	C664.665161,665.810059 663.408569,666.033691 662.150879,666.040466 
	C580.536560,666.480347 498.922607,667.034668 417.307709,667.285400 
	C350.977692,667.489136 284.646088,667.482788 218.316101,667.273132 
	C172.358337,667.127869 126.402176,666.480164 80.445419,666.043884 
	C79.318687,666.033203 78.193436,665.867493 76.673340,665.741333 
	C76.673340,663.874695 76.673347,662.245483 76.673347,660.616272 
	C76.673332,481.956879 76.672905,303.297485 76.680145,124.638107 
	C76.680206,123.141693 76.783707,121.645287 76.878418,119.704643 
M464.859711,398.513794 
	C463.910828,386.779510 461.730286,374.989624 462.257019,363.321960 
	C463.547028,334.746918 476.834930,313.165375 503.287109,300.973969 
	C523.320740,291.740692 544.785034,289.859283 566.592712,289.717438 
	C584.354675,289.601959 602.190247,289.386017 619.840637,287.657013 
	C631.148865,286.549255 641.743530,281.387695 645.953003,269.550537 
	C650.301208,257.322937 648.593445,245.103210 641.622253,234.137589 
	C635.040649,223.784698 624.401611,221.079636 612.944031,221.032959 
	C586.284729,220.924332 559.623962,220.871933 532.965149,221.030045 
	C500.165222,221.224564 469.778137,229.385269 443.226990,249.370087 
	C421.972351,265.368317 405.015442,284.909760 395.197266,309.949554 
	C382.550690,342.202728 382.302368,375.277161 389.770660,408.623352 
	C396.985046,440.835724 413.682251,467.453400 438.225983,489.411255 
	C463.274078,511.820435 492.519165,522.939575 526.037048,522.992371 
	C554.862854,523.037781 583.688782,523.035217 612.514587,522.990051 
	C632.373535,522.958923 642.536377,513.983643 644.412720,494.318390 
	C645.905945,478.668182 641.309204,465.365021 626.540466,457.902222 
	C619.971497,454.582916 612.513123,451.868713 605.263916,451.281525 
	C588.039429,449.886414 570.693909,450.047668 553.407227,449.337097 
	C542.779907,448.900299 532.095764,448.581909 521.573425,447.184174 
	C509.315247,445.555847 497.560608,441.937897 487.381744,434.352570 
	C475.479767,425.483154 468.807312,413.335236 464.859711,398.513794 
M269.516693,326.047089 
	C271.316193,329.416962 273.491425,332.642120 274.853790,336.180298 
	C283.303619,358.124969 283.320892,380.517090 276.830658,402.797058 
	C270.967316,422.924866 258.102325,436.783752 237.684677,443.318085 
	C218.988342,449.301575 199.780273,450.446442 180.454422,449.581909 
	C164.580917,448.871765 148.810669,449.604401 133.258133,452.213226 
	C113.093224,455.595764 101.335037,466.950256 99.825691,484.490814 
	C99.202919,491.728333 100.165398,499.635071 102.560356,506.484406 
	C107.035866,519.283936 118.213074,522.900696 130.649490,522.957153 
	C160.643768,523.093445 190.639282,523.061218 220.633728,522.944153 
	C225.941910,522.923401 231.296768,522.490784 236.545929,521.694031 
	C274.483154,515.935486 303.692017,495.929626 326.557373,465.886719 
	C348.239166,437.398987 357.452515,404.779907 358.013245,369.357880 
	C358.395477,345.213043 355.079895,321.540710 343.414764,300.302856 
	C314.942535,248.465622 270.476440,222.100708 211.334900,221.074402 
	C185.180573,220.620544 159.011292,220.912857 132.850113,221.075455 
	C128.078674,221.105103 123.153160,221.563507 118.575256,222.826324 
	C104.347458,226.751099 96.883537,237.743027 96.069817,255.031052 
	C95.305214,271.275635 101.723671,280.686890 117.128586,285.982452 
	C130.824554,290.690552 144.997711,290.266602 159.157349,289.905060 
	C180.657654,289.356110 202.124741,289.293274 223.099472,295.052826 
	C241.721191,300.166290 257.936859,309.018890 269.516693,326.047089 
z"/>
<path fill="#ED7F01" opacity="1.000000" stroke="none" 
	d="
M464.927185,398.920959 
	C468.807312,413.335236 475.479767,425.483154 487.381744,434.352570 
	C497.560608,441.937897 509.315247,445.555847 521.573425,447.184174 
	C532.095764,448.581909 542.779907,448.900299 553.407227,449.337097 
	C570.693909,450.047668 588.039429,449.886414 605.263916,451.281525 
	C612.513123,451.868713 619.971497,454.582916 626.540466,457.902222 
	C641.309204,465.365021 645.905945,478.668182 644.412720,494.318390 
	C642.536377,513.983643 632.373535,522.958923 612.514587,522.990051 
	C583.688782,523.035217 554.862854,523.037781 526.037048,522.992371 
	C492.519165,522.939575 463.274078,511.820435 438.225983,489.411255 
	C413.682251,467.453400 396.985046,440.835724 389.770660,408.623352 
	C382.302368,375.277161 382.550690,342.202728 395.197266,309.949554 
	C405.015442,284.909760 421.972351,265.368317 443.226990,249.370087 
	C469.778137,229.385269 500.165222,221.224564 532.965149,221.030045 
	C559.623962,220.871933 586.284729,220.924332 612.944031,221.032959 
	C624.401611,221.079636 635.040649,223.784698 641.622253,234.137589 
	C648.593445,245.103210 650.301208,257.322937 645.953003,269.550537 
	C641.743530,281.387695 631.148865,286.549255 619.840637,287.657013 
	C602.190247,289.386017 584.354675,289.601959 566.592712,289.717438 
	C544.785034,289.859283 523.320740,291.740692 503.287109,300.973969 
	C476.834930,313.165375 463.547028,334.746918 462.257019,363.321960 
	C461.730286,374.989624 463.910828,386.779510 464.927185,398.920959 
z"/>
<path fill="#ED7F01" opacity="1.000000" stroke="none" 
	d="
M269.319550,325.743896 
	C257.936859,309.018890 241.721191,300.166290 223.099472,295.052826 
	C202.124741,289.293274 180.657654,289.356110 159.157349,289.905060 
	C144.997711,290.266602 130.824554,290.690552 117.128586,285.982452 
	C101.723671,280.686890 95.305214,271.275635 96.069817,255.031052 
	C96.883537,237.743027 104.347458,226.751099 118.575256,222.826324 
	C123.153160,221.563507 128.078674,221.105103 132.850113,221.075455 
	C159.011292,220.912857 185.180573,220.620544 211.334900,221.074402 
	C270.476440,222.100708 314.942535,248.465622 343.414764,300.302856 
	C355.079895,321.540710 358.395477,345.213043 358.013245,369.357880 
	C357.452515,404.779907 348.239166,437.398987 326.557373,465.886719 
	C303.692017,495.929626 274.483154,515.935486 236.545929,521.694031 
	C231.296768,522.490784 225.941910,522.923401 220.633728,522.944153 
	C190.639282,523.061218 160.643768,523.093445 130.649490,522.957153 
	C118.213074,522.900696 107.035866,519.283936 102.560356,506.484406 
	C100.165398,499.635071 99.202919,491.728333 99.825691,484.490814 
	C101.335037,466.950256 113.093224,455.595764 133.258133,452.213226 
	C148.810669,449.604401 164.580917,448.871765 180.454422,449.581909 
	C199.780273,450.446442 218.988342,449.301575 237.684677,443.318085 
	C258.102325,436.783752 270.967316,422.924866 276.830658,402.797058 
	C283.320892,380.517090 283.303619,358.124969 274.853790,336.180298 
	C273.491425,332.642120 271.316193,329.416962 269.319550,325.743896 
z"/>
</svg>