<?xml version="1.0" encoding="UTF-8" ?>
<!DOCTYPE svg PUBLIC "-//W3C//DTD SVG 1.1//EN" "http://www.w3.org/Graphics/SVG/1.1/DTD/svg11.dtd">
<svg width="589pt" height="592pt" viewBox="0 0 589 592" version="1.1" xmlns="http://www.w3.org/2000/svg">
<g id="#fd732cff">
<path fill="#fd732c" opacity="1.00" d=" M 260.50 1.69 C 291.54 -0.59 323.01 -0.05 353.59 6.18 C 392.16 13.50 429.08 29.24 461.20 51.82 C 492.52 73.99 519.98 101.75 541.30 133.70 C 562.93 166.34 577.32 203.63 583.78 242.23 C 587.86 266.52 589.09 291.28 587.78 315.87 C 586.09 356.84 576.79 397.77 558.59 434.62 C 541.74 468.70 517.21 498.74 487.98 522.95 C 461.79 544.91 431.55 562.02 399.23 573.15 C 355.34 588.38 308.23 593.09 262.01 590.05 C 220.45 587.18 179.19 575.88 142.98 555.04 C 110.52 536.54 82.43 510.89 59.62 481.40 C 41.93 458.25 27.86 432.34 18.15 404.86 C 8.93 378.84 3.59 351.52 1.45 324.02 C -0.28 296.60 -0.01 268.91 4.45 241.75 C 9.89 205.59 22.27 170.43 41.00 139.01 C 71.20 88.68 116.35 46.63 170.65 23.63 C 199.12 11.37 229.71 4.55 260.50 1.69 M 233.86 94.86 C 187.27 111.37 146.76 142.54 115.69 180.66 C 115.14 181.39 114.63 182.15 114.15 182.93 C 118.99 186.21 124.35 188.64 129.44 191.50 C 163.82 209.27 199.58 225.26 237.57 233.46 C 240.21 234.01 242.86 234.61 245.57 234.68 C 249.17 208.22 251.81 181.63 254.32 155.04 C 255.69 145.17 254.29 135.25 253.53 125.40 C 252.33 113.63 251.29 101.84 249.62 90.13 C 244.15 90.86 239.08 93.18 233.86 94.86 M 344.42 93.11 C 343.58 110.49 341.34 127.77 339.27 145.04 C 338.00 158.10 337.38 171.20 336.53 184.28 C 335.78 202.03 336.54 219.87 339.23 237.44 C 372.31 235.60 404.68 224.97 433.22 208.27 C 445.39 200.78 457.49 192.87 467.83 182.97 C 465.51 178.55 461.98 174.94 458.91 171.05 C 430.04 136.37 391.22 110.92 349.46 94.43 C 347.83 93.82 346.14 93.36 344.42 93.11 M 87.21 265.08 C 85.93 269.62 85.62 274.35 84.97 279.00 C 82.97 296.33 81.92 313.95 84.70 331.26 C 89.42 361.98 104.46 390.26 123.66 414.36 C 125.62 416.70 127.29 419.44 129.95 421.05 C 139.20 415.19 147.50 407.92 156.07 401.12 C 180.95 380.37 204.48 357.22 221.35 329.34 C 223.70 325.10 226.47 320.99 227.79 316.28 C 224.09 313.43 219.73 311.60 215.62 309.42 C 202.44 302.65 188.61 297.25 174.64 292.35 C 146.60 282.45 117.91 274.55 89.62 265.44 C 89.02 265.35 87.81 265.17 87.21 265.08 M 469.40 276.40 C 445.51 284.60 421.81 293.31 398.17 302.20 C 387.11 306.50 375.80 310.21 365.02 315.15 C 369.03 321.89 374.41 327.69 379.06 333.99 C 403.39 364.72 429.14 394.43 457.48 421.54 C 458.45 422.41 459.51 423.20 460.71 423.76 C 474.61 407.72 486.73 389.95 495.49 370.55 C 503.36 353.18 507.71 334.09 506.92 314.97 C 506.20 298.86 503.72 282.73 498.86 267.34 C 488.87 269.71 479.17 273.26 469.40 276.40 M 283.10 385.09 C 254.84 415.16 226.25 444.92 198.24 475.23 C 195.98 477.66 193.44 479.92 191.77 482.84 C 195.70 486.01 200.47 487.87 204.94 490.13 C 225.60 500.04 248.04 506.08 270.81 508.41 C 289.09 510.20 307.65 510.12 325.75 506.77 C 344.41 503.61 362.51 497.60 379.69 489.72 C 383.31 488.01 387.11 486.53 390.32 484.07 C 373.75 463.41 357.88 442.17 342.12 420.88 C 329.69 404.22 315.51 388.77 299.34 375.68 C 298.00 374.64 296.60 373.67 295.06 372.99 C 290.41 376.29 287.21 381.19 283.10 385.09 Z" />
</g>
<g id="#ffe341ff">
<path fill="#ffe341" opacity="1.00" d=" M 233.86 94.86 C 239.08 93.18 244.15 90.86 249.62 90.13 C 251.29 101.84 252.33 113.63 253.53 125.40 C 254.29 135.25 255.69 145.17 254.32 155.04 C 251.81 181.63 249.17 208.22 245.57 234.68 C 242.86 234.61 240.21 234.01 237.57 233.46 C 199.58 225.26 163.82 209.27 129.44 191.50 C 124.35 188.64 118.99 186.21 114.15 182.93 C 114.63 182.15 115.14 181.39 115.69 180.66 C 146.76 142.54 187.27 111.37 233.86 94.86 Z" />
<path fill="#ffe341" opacity="1.00" d=" M 344.42 93.11 C 346.14 93.36 347.83 93.82 349.46 94.43 C 391.22 110.92 430.04 136.37 458.91 171.05 C 461.98 174.94 465.51 178.55 467.83 182.97 C 457.49 192.87 445.39 200.78 433.22 208.27 C 404.68 224.97 372.31 235.60 339.23 237.44 C 336.54 219.87 335.78 202.03 336.53 184.28 C 337.38 171.20 338.00 158.10 339.27 145.04 C 341.34 127.77 343.58 110.49 344.42 93.11 Z" />
<path fill="#ffe341" opacity="1.00" d=" M 87.21 265.08 C 87.81 265.17 89.02 265.35 89.62 265.44 C 117.91 274.55 146.60 282.45 174.64 292.35 C 188.61 297.25 202.44 302.65 215.62 309.42 C 219.73 311.60 224.09 313.43 227.79 316.28 C 226.47 320.99 223.70 325.10 221.35 329.34 C 204.48 357.22 180.95 380.37 156.07 401.12 C 147.50 407.92 139.20 415.19 129.95 421.05 C 127.29 419.44 125.62 416.70 123.66 414.36 C 104.46 390.26 89.42 361.98 84.70 331.26 C 81.92 313.95 82.97 296.33 84.97 279.00 C 85.62 274.35 85.93 269.62 87.21 265.08 Z" />
<path fill="#ffe341" opacity="1.00" d=" M 469.40 276.40 C 479.17 273.26 488.87 269.71 498.86 267.34 C 503.72 282.73 506.20 298.86 506.92 314.97 C 507.71 334.09 503.36 353.18 495.49 370.55 C 486.73 389.95 474.61 407.72 460.71 423.76 C 459.51 423.20 458.45 422.41 457.48 421.54 C 429.14 394.43 403.39 364.72 379.06 333.99 C 374.41 327.69 369.03 321.89 365.02 315.15 C 375.80 310.21 387.11 306.50 398.17 302.20 C 421.81 293.31 445.51 284.60 469.40 276.40 Z" />
<path fill="#ffe341" opacity="1.00" d=" M 283.10 385.09 C 287.21 381.19 290.41 376.29 295.06 372.99 C 296.60 373.67 298.00 374.64 299.34 375.68 C 315.51 388.77 329.69 404.22 342.12 420.88 C 357.88 442.17 373.75 463.41 390.32 484.07 C 387.11 486.53 383.31 488.01 379.69 489.72 C 362.51 497.60 344.41 503.61 325.75 506.77 C 307.65 510.12 289.09 510.20 270.81 508.41 C 248.04 506.08 225.60 500.04 204.94 490.13 C 200.47 487.87 195.70 486.01 191.77 482.84 C 193.44 479.92 195.98 477.66 198.24 475.23 C 226.25 444.92 254.84 415.16 283.10 385.09 Z" />
</g>
</svg>
