<svg width="742" height="742" xmlns="http://www.w3.org/2000/svg" xmlns:xlink="http://www.w3.org/1999/xlink" xml:space="preserve" overflow="hidden"><defs><clipPath id="clip0"><rect x="1940" y="881" width="742" height="742"/></clipPath></defs><g clip-path="url(#clip0)" transform="translate(-1940 -881)"><path d="M2000 1025C2073.97 1023.44 2108.83 1043.3 2195.21 1025 2281.58 1006.7 2359.28 1032.3 2415.33 1025 2471.39 1017.7 2562.18 1032.61 2623 1025 2635.15 1087.64 2611.34 1153.43 2623 1196.37 2634.66 1239.3 2620.93 1313.85 2623 1367.73 2625.07 1421.62 2608.91 1510.02 2623 1555 2543.47 1573.17 2515.81 1553.67 2434.02 1555 2352.24 1556.33 2275.94 1543 2226.36 1555 2176.78 1567 2082.47 1534.25 2000 1555 1988.23 1501.26 2014.49 1413.01 2000 1373.03 1985.51 1333.06 2007.61 1265.02 2000 1206.97 1992.39 1148.92 2018.82 1108.76 2000 1025Z" fill="#E7D6AF" fill-rule="evenodd"/><path d="M2000 1025C2075.78 1012.62 2124.35 1036.29 2220.13 1025 2315.91 1013.71 2375.65 1043.8 2415.33 1025 2455.01 1006.2 2580.1 1027.65 2623 1025 2642.67 1082.27 2622.7 1120.59 2623 1201.67 2623.3 1282.74 2604.81 1302.86 2623 1367.73 2641.19 1432.61 2614 1515.31 2623 1555 2528.63 1571.19 2506.12 1553.49 2402.87 1555 2299.63 1556.51 2239 1544.97 2182.75 1555 2126.5 1565.03 2054.04 1546.48 2000 1555 1988.34 1512.14 2011.89 1465.78 2000 1383.63 1988.11 1301.48 2007.75 1254.54 2000 1196.37 1992.25 1138.2 2001.16 1107.34 2000 1025Z" stroke="#E7D6AF" stroke-width="45.8333" stroke-miterlimit="8" fill="none" fill-rule="evenodd"/><path d="M2071.28 1101 2088.86 1101 2089.72 1101 2117.17 1101 2117.5 1101 2147.66 1101C2190.41 1101 2225.84 1114.78 2253.97 1142.34 2282.66 1169.33 2297 1203.92 2297 1246.09 2297 1289.4 2284.06 1325.67 2258.19 1354.92 2231.19 1385.85 2198.28 1401.87 2159.47 1403L2117.5 1403 2117.5 1403 2089.72 1403 2088.86 1403 2070.44 1403C2049.06 1403 2038.37 1391.77 2038.37 1369.32 2038.37 1348.62 2050.71 1336 2075.39 1331.46L2088.86 1330.59 2088.86 1330.54 2092.34 1329.61 2117.17 1329.61 2117.17 1329.61 2118.13 1329.61C2153 1330.73 2178.03 1326 2193.22 1315.41 2211.22 1302.62 2220.22 1281.2 2220.22 1251.14 2220.22 1203.42 2192.87 1176.57 2138.18 1170.61L2117.17 1169.54 2117.17 1169.47 2116.51 1169.33 2089.72 1170.13 2089.72 1170.16 2087.31 1170.17C2052.44 1170.17 2035 1159.77 2035 1138.96 2035 1113.65 2047.09 1101 2071.28 1101Z" fill="#ED7F00" fill-rule="evenodd"/><path d="M2473.32 1101 2499.87 1101 2500.73 1101 2508.66 1101 2508.98 1101 2550.72 1101C2574.91 1101 2587 1113.65 2587 1138.96 2587 1159.77 2569.57 1170.17 2534.7 1170.17L2508.66 1169.99 2508.66 1169.96 2500.73 1169.34 2500.73 1169.69 2482.8 1170.61C2428.11 1176.57 2400.77 1203.42 2400.77 1251.14 2400.77 1281.2 2409.77 1302.62 2427.76 1315.41 2439.15 1323.35 2456.08 1328 2478.54 1329.35L2500.73 1329.59 2500.73 1329.61 2508.66 1329.61 2508.98 1329.61 2517.82 1329.61C2561.69 1328.48 2583.63 1341.72 2583.63 1369.32 2583.63 1391.77 2572.94 1403 2551.57 1403L2508.98 1403 2508.66 1403 2500.73 1403 2499.87 1403 2461.51 1403C2422.7 1401.88 2389.8 1385.85 2362.81 1354.92 2336.94 1325.67 2324 1289.4 2324 1246.09 2324 1203.92 2338.34 1169.33 2367.02 1142.34 2395.14 1114.78 2430.58 1101 2473.32 1101Z" fill="#ED7F00" fill-rule="evenodd"/><path d="M2476.78 881 2638.49 881C2653.08 881 2663.61 885.93 2670.07 895.792 2676.53 905.653 2679.75 917.062 2679.75 930.02 2679.75 1149.32 2679.93 1308.59 2680.29 1407.84L2680.31 1413.69 2681.16 1417.78C2681.72 1476.73 2682 1511.83 2682 1523.06 2682 1528.67 2681.93 1533.58 2681.79 1537.79L2681.74 1538.7 2681.86 1542.19 2681.48 1542.88 2681.16 1548.32C2681.58 1572.75 2679.78 1590.22 2675.77 1600.75L2674.78 1602.45 2674.39 1603.78 2672.95 1605.62 2671.01 1608.96 2669.3 1610.3 2667.96 1612.01 2664.62 1613.95 2662.78 1615.38 2661.46 1615.78 2659.75 1616.77C2649.22 1620.78 2631.75 1622.58 2607.32 1622.16L2601.88 1622.48 2601.19 1622.86 2597.71 1622.73 2596.8 1622.79C2592.58 1622.93 2587.67 1623 2582.06 1623 2570.83 1623 2535.73 1622.72 2476.78 1622.16L2472.68 1621.31 2466.84 1621.29C2404.81 1621.06 2319.34 1620.91 2210.41 1620.83L2151.82 1620.79 2145.22 1622.16C2086.27 1622.72 2051.17 1623 2039.94 1623 2028.71 1623 2020.29 1622.72 2014.68 1622.16 1982.11 1622.72 1961.9 1619.34 1954.04 1612.01 1951.51 1610.18 1949.37 1607.44 1947.62 1603.78L1947.18 1602.33 1943.7 1598.33C1941.23 1593.07 1940 1586.78 1940 1579.48L1940 1417.78 1941.71 1407.57 1941.83 1372.53C1942.11 1272.46 1942.25 1124.96 1942.25 930.02 1942.25 917.062 1945.47 905.653 1951.93 895.792 1958.39 885.931 1968.92 881 1983.52 881L2145.22 881C2166 881 2176.38 893.212 2176.38 917.637 2176.38 942.062 2166 954.274 2145.22 954.274L2015.52 954.274 2015.52 1546.36 2145.22 1546.36 2151.42 1547.48 2470.58 1547.48 2476.78 1546.36 2605.36 1546.36 2605.36 1417.78 2606.48 1411.57 2606.48 954.273 2476.78 954.273C2456 954.273 2445.62 942.061 2445.62 917.637 2445.62 893.212 2456 881 2476.78 881Z" fill-rule="evenodd"/></g></svg>